<svg xmlns="http://www.w3.org/2000/svg" viewBox="0 0 21 18" enable-background="new 0 0 21 18"><g fill="#4caced"><path d="m3.153 6.5h-3.153v4.999h3.153l4.108 3.38c0 0 .863.757.863.051v-11.929c0-.558-.759.044-.759.044l-4.212 3.455"/><path d="m14.05 16.341c2.193-1.833 3.453-4.508 3.453-7.34 0-2.832-1.26-5.507-3.453-7.341-.291-.243-.725-.205-.971.085-.107.125-.16.283-.16.439 0 .196.084.39.244.523 1.883 1.573 2.963 3.866 2.963 6.293 0 2.424-1.082 4.721-2.961 6.29-.162.134-.246.327-.246.525 0 .156.053.311.16.438.244.293.68.329.971.088"/><path d="m14.74 9c0-2.02-.896-3.935-2.463-5.243-.291-.243-.725-.207-.973.083-.105.129-.16.286-.16.441 0 .194.084.389.246.524 1.255 1.048 1.975 2.576 1.975 4.194 0 1.618-.721 3.144-1.975 4.194-.162.134-.246.328-.246.523 0 .156.053.312.16.44.248.29.682.327.973.082 1.567-1.306 2.463-3.216 2.463-5.238"/><path d="m11.984 9c0-1.215-.537-2.361-1.479-3.146-.288-.243-.724-.205-.969.085-.109.126-.161.282-.161.438 0 .195.085.39.246.525.63.521.987 1.287.987 2.097 0 .811-.357 1.573-.987 2.098-.161.134-.246.327-.246.523 0 .156.053.313.162.439.245.289.681.328.969.084.939-.783 1.478-1.928 1.478-3.143"/></g></svg>